<?xml version="1.0" encoding="utf-8"?>
<!-- Generator: Adobe Illustrator 26.1.0, SVG Export Plug-In . SVG Version: 6.00 Build 0)  -->
<svg version="1.1" id="Livello_1" xmlns="http://www.w3.org/2000/svg" xmlns:xlink="http://www.w3.org/1999/xlink" x="0px" y="0px"
	 viewBox="0 0 32 32" style="enable-background:new 0 0 32 32;" xml:space="preserve">
<style type="text/css">
	.st0{fill:#009DE0;}
	.st1{fill:none;}
</style>
<path class="st0" d="M8.7-238.12v6.61c0,0.86,0.44,1.3,1.3,1.3h2.18v-5.44h1.06v5.44h2.23v-5.44h1.06v5.44h2.23v-5.44h1.06v5.44
	h2.21c0.8,0,1.3-0.5,1.3-1.3v-6.61H8.7z M28.74-248.89c0-2.69-2.19-4.88-4.88-4.88c-1.24,0-2.41,0.46-3.3,1.29
	c-0.66-1.94-2.51-3.31-4.62-3.31c-2.1,0-3.92,1.32-4.59,3.24c-0.88-0.78-2.02-1.22-3.22-1.22c-2.69,0-4.88,2.19-4.88,4.88
	c0,2.69,2.19,4.88,4.88,4.88H8.7v4.85h14.62v-4.85h0.54C26.56-244.01,28.74-246.2,28.74-248.89"/>
<rect x="-30.53" y="-231.05" class="st1" width="15.35" height="4.05"/>
<text transform="matrix(1 0 0 1 -30.5319 -229.5317)"><tspan x="0" y="0" style="fill:#FFFFFF; font-family:'OpenSans-Light'; font-size:2px;">Refined dining </tspan><tspan x="0" y="2.4" style="fill:#FFFFFF; font-family:'OpenSans-Light'; font-size:2px;">and buffet</tspan></text>
<rect x="-30.53" y="-154.88" class="st1" width="20.36" height="1.68"/>
<text transform="matrix(1 0 0 1 -30.5319 -153.3578)" style="fill:#FFFFFF; font-family:'OpenSans-Light'; font-size:2px;">KIDS CLUB</text>
<rect x="-30.53" y="-120.19" class="st1" width="31.12" height="3.99"/>
<text transform="matrix(1 0 0 1 -30.5319 -118.6677)"><tspan x="0" y="0" style="fill:#FFFFFF; font-family:'OpenSans-Light'; font-size:2px;">Fitness centre </tspan><tspan x="0" y="2.4" style="fill:#FFFFFF; font-family:'OpenSans-Light'; font-size:2px;">and pools   </tspan></text>
<rect x="-30.53" y="-81.19" class="st1" width="15.86" height="2"/>
<text transform="matrix(1 0 0 1 -30.5319 -79.6705)" style="fill:#FFFFFF; font-family:'OpenSans-Light'; font-size:2px;">H&amp;S protocol</text>
<rect x="-30.53" y="-48.73" class="st1" width="15.59" height="6.71"/>
<text transform="matrix(1 0 0 1 -30.5319 -47.2096)"><tspan x="0" y="0" style="fill:#FFFFFF; font-family:'OpenSans-Light'; font-size:2px;">Full board </tspan><tspan x="0" y="2.4" style="fill:#FFFFFF; font-family:'OpenSans-Light'; font-size:2px;">including </tspan><tspan x="0" y="4.8" style="fill:#FFFFFF; font-family:'OpenSans-Light'; font-size:2px;">table service </tspan></text>
<rect x="-30.4" y="11.35" class="st1" width="15.59" height="4.11"/>
<text transform="matrix(1 0 0 1 -30.3969 12.8657)"><tspan x="0" y="0" style="fill:#FFFFFF; font-family:'OpenSans-Light'; font-size:2px;">BROADWAY</tspan><tspan x="0" y="2.4" style="fill:#FFFFFF; font-family:'OpenSans-Light'; font-size:2px;">STYLE SHOW</tspan></text>
<rect x="-30.4" y="19.62" class="st1" width="15.59" height="4.11"/>
<text transform="matrix(1 0 0 1 -30.3969 21.1364)"><tspan x="0" y="0" style="fill:#FFFFFF; font-family:'OpenSans-Light'; font-size:2px;">West End-style </tspan><tspan x="0" y="2.4" style="fill:#FFFFFF; font-family:'OpenSans-Light'; font-size:2px;">theatre shows</tspan></text>
<rect x="-30.4" y="27.89" class="st1" width="15.59" height="4.11"/>
<text transform="matrix(1 0 0 1 -30.3969 29.4071)"><tspan x="0" y="0" style="fill:#FFFFFF; font-family:'OpenSans-Light'; font-size:2px;">Entertainment </tspan><tspan x="0" y="2.4" style="fill:#FFFFFF; font-family:'OpenSans-Light'; font-size:2px;">for family</tspan></text>
<rect x="-30.4" y="3.07" class="st1" width="15.59" height="4.11"/>
<text transform="matrix(1 0 0 1 -30.3969 4.5945)"><tspan x="0" y="0" style="fill:#FFFFFF; font-family:'OpenSans-Light'; font-size:2px;">Shows and </tspan><tspan x="0" y="2.4" style="fill:#FFFFFF; font-family:'OpenSans-Light'; font-size:2px;">entertainment</tspan></text>
<rect x="-30.53" y="101.69" class="st1" width="23.63" height="4.41"/>
<text transform="matrix(1 0 0 1 -30.5319 103.2134)"><tspan x="0" y="0" style="fill:#FFFFFF; font-family:'OpenSans-Light'; font-size:2px;">Flexible </tspan><tspan x="0" y="2.4" style="fill:#FFFFFF; font-family:'OpenSans-Light'; font-size:2px;">booking changes</tspan></text>
<rect x="-30.53" y="136.39" class="st1" width="23.63" height="6.61"/>
<text transform="matrix(1 0 0 1 -30.5319 137.9136)"><tspan x="0" y="0" style="fill:#FFFFFF; font-family:'OpenSans-Light'; font-size:2px;">Elevated standards </tspan><tspan x="0" y="2.4" style="fill:#FFFFFF; font-family:'OpenSans-Light'; font-size:2px;">of sanitation and </tspan><tspan x="0" y="4.8" style="fill:#FFFFFF; font-family:'OpenSans-Light'; font-size:2px;">cleanlines</tspan></text>
<rect x="-30.53" y="177.83" class="st1" width="23.63" height="2.17"/>
<text transform="matrix(1 0 0 1 -30.5319 179.3531)" style="fill:#FFFFFF; font-family:'OpenSans-Light'; font-size:2px;">Best-price-guarantee</text>
<rect x="-30.53" y="212.94" class="st1" width="23.63" height="4.06"/>
<text transform="matrix(1 0 0 1 -30.5319 214.4626)"><tspan x="0" y="0" style="fill:#FFFFFF; font-family:'OpenSans-Light'; font-size:2px;">Comfortable </tspan><tspan x="0" y="2.4" style="fill:#FFFFFF; font-family:'OpenSans-Light'; font-size:2px;">and spacious cabins</tspan></text>
<rect x="-30.53" y="251.97" class="st1" width="23.63" height="2.03"/>
<text transform="matrix(1 0 0 1 -30.5319 253.4917)" style="fill:#FFFFFF; font-family:'OpenSans-Light'; font-size:2px;">Use of facilities</text>
<rect x="-30.53" y="289.63" class="st1" width="28.48" height="2.11"/>
<text transform="matrix(1 0 0 1 -30.5323 291.152)" style="fill:#FFFFFF; font-family:'OpenSans-Light'; font-size:2px;">XXX-speaking guest service</text>
<g>
	<path class="st0" d="M24.23,15.52c1.61,0.02,2.94-1.31,2.94-2.93c0-1.63-1.29-2.94-2.92-2.93c-1.62,0-2.94,1.33-2.92,2.95
		C21.35,14.2,22.65,15.51,24.23,15.52z M24.26,13.81c0.74,0,1.35-1.06,1.35-0.31c0,0.74-0.6,1.35-1.35,1.35
		c-0.74,0-1.35-0.6-1.35-1.35C22.92,12.75,23.52,13.81,24.26,13.81z"/>
	<path class="st0" d="M7.75,15.52c1.62-0.01,2.92-1.34,2.9-2.97c-0.02-1.61-1.3-2.89-2.9-2.89c-1.63-0.01-2.93,1.29-2.93,2.93
		C4.81,14.21,6.14,15.53,7.75,15.52z M7.8,13.81c0.74,0,1.35-1.06,1.35-0.31c0,0.74-0.6,1.35-1.35,1.35c-0.74,0-1.35-0.6-1.35-1.35
		C6.45,12.75,7.05,13.81,7.8,13.81z"/>
	<path class="st0" d="M19.13,16.95c-2.1-0.05-4.33-0.05-6.61,0c-1.6,0.03-2.6,1.07-2.61,2.7c-0.01,1.9,0,3.82,0,5.69v0.03h12.01
		l0.01-5.51C21.93,18.15,20.81,16.98,19.13,16.95z"/>
	<path class="st0" d="M9.98,16.99c-1.69-0.03-3.38-0.03-5.07,0.01c-1.52,0.03-2.47,1.05-2.48,2.56l0.04,4.44h6.47l-0.01-4.35
		C8.94,18.54,9.32,17.63,9.98,16.99z"/>
	<path class="st0" d="M27.06,16.99c-1.69-0.03-3.38-0.04-5.07-0.01c0.66,0.64,1.04,1.55,1.05,2.65l-0.01,4.35h6.49l0.02-4.44
		C29.53,18.04,28.57,17.02,27.06,16.99z"/>
	<path class="st0" d="M12.01,14.07c0.41,0.24,0.98,0.36,1.51,0.41c0.64,0.58,1.49,0.93,2.42,0.93c0.92-0.01,1.75-0.36,2.38-0.93
		c0.53-0.05,1.1-0.17,1.52-0.41c0.43-0.25,0.74-0.66,0.86-1.05c-0.52-0.32-1.04-0.78-1.2-1.66l0,0c-0.2-1.8-1.71-3.18-3.56-3.19
		c-1.88-0.01-3.39,1.38-3.59,3.2c-0.16,0.87-0.68,1.33-1.2,1.65C11.26,13.41,11.58,13.82,12.01,14.07z M15.92,13.24
		c0.91,0,1.64-1.5,1.64-0.59c0,0.91-0.73,1.85-1.64,1.85c-0.91,0-1.64-0.73-1.64-1.64S15.01,13.24,15.92,13.24z"/>
</g>
<g>
	<path class="st0" d="M9.83-173.14c1.43,0,2.6-1.17,2.6-2.6c0-1.43-1.17-2.6-2.6-2.6c-1.42,0-2.58,1.17-2.58,2.6
		C7.26-174.31,8.41-173.14,9.83-173.14z"/>
	<path class="st0" d="M15.58-176.15c0-0.15,0-0.32-0.02-0.46c-0.03-0.48-0.47-0.86-0.96-0.83c-0.23,0.02-0.45,0.13-0.61,0.31
		c-0.16,0.18-0.24,0.42-0.22,0.62c0,0.07,0.01,0.14,0.01,0.21c0,0.05,0.01,0.1,0.01,0.15c0,2.17-1.77,3.94-3.94,3.94
		c-2.18,0-3.95-1.77-3.95-3.94c0-0.44,0.07-0.88,0.22-1.28c0.16-0.47-0.1-0.99-0.57-1.14c-0.47-0.16-0.98,0.09-1.14,0.55
		c-0.21,0.59-0.32,1.21-0.32,1.86c0,2.08,1.12,3.97,2.95,4.99c-0.2,1.08-0.42,3.31,0.61,5.38l0.11,0.22l0.56-0.08
		c0.02,0.52-0.07,1.19-0.31,1.36c-0.01,0-0.56,0.31-2.4-0.75c-0.29-0.17-0.62-0.22-0.93-0.13c-0.32,0.08-0.58,0.29-0.75,0.58
		c-0.33,0.6-0.13,1.34,0.45,1.67c1.32,0.76,2.43,1.13,3.38,1.13c0.64,0,1.2-0.17,1.66-0.5c1.17-0.81,1.37-2.29,1.37-3.22
		c0.52,0.56,1.62,2.24,0.53,5.83c-0.19,0.66,0.18,1.34,0.84,1.53c0.13,0.03,0.25,0.05,0.34,0.05c0.55,0,1.02-0.35,1.18-0.87
		c1.54-5.05-0.38-7.59-1.35-8.49c-0.47-1.2-0.57-2.41-0.55-3.3C14.06-171.6,15.58-173.73,15.58-176.15z"/>
	<path class="st0" d="M28.06-162.54c-0.16-0.28-0.44-0.49-0.76-0.57c-0.32-0.08-0.65-0.03-0.91,0.13c-1.75,1.01-2.34,0.78-2.41,0.74
		c-0.03-0.02-0.11-0.09-0.18-0.32c0.53-0.03,0.83-0.11,0.83-0.45c-0.04-2.15,0.05-4.66,0.11-5.95c1.93-0.97,3.16-2.95,3.16-5.11
		c0-0.64-0.11-1.27-0.31-1.85c-0.15-0.46-0.64-0.71-1.14-0.57c-0.23,0.08-0.42,0.24-0.52,0.45c-0.11,0.22-0.12,0.46-0.05,0.7
		c0.14,0.39,0.22,0.83,0.22,1.27c0,2.17-1.77,3.94-3.94,3.94s-3.94-1.77-3.94-3.94c0-0.11,0-0.21,0.02-0.33
		c0.02-0.24-0.07-0.48-0.22-0.66c-0.16-0.18-0.37-0.28-0.61-0.3c-0.49-0.03-0.92,0.33-0.96,0.85c0,0.05,0,0.11-0.01,0.17
		c-0.01,0.08-0.01,0.17-0.01,0.25c0,2.15,1.21,4.11,3.11,5.09c-0.69,1.13-1.74,3.17-2.33,5.9l-0.09,0.39l0.4,0.02
		c0,0,0.22,0.01,0.58,0.02c-0.49,1.67-0.4,3.61,0.26,5.8c0.16,0.51,0.65,0.87,1.18,0.87c0.09,0,0.21-0.02,0.35-0.05
		c0.65-0.19,1.02-0.88,0.82-1.54c-0.77-2.52-0.47-4.08-0.02-4.98c0.12,0,0.23,0,0.35,0.01c0.09,0,0.18,0,0.27,0.01
		c0.16,1.08,0.6,1.87,1.3,2.34c1.26,0.84,2.86,0.61,5.05-0.65C28.22-161.23,28.39-161.97,28.06-162.54z"/>
	<path class="st0" d="M22.16-171.08c1.43,0,2.6-1.17,2.6-2.6c0-1.43-1.17-2.6-2.6-2.6c-1.43,0-2.6,1.17-2.6,2.6
		C19.56-172.25,20.73-171.08,22.16-171.08z"/>
</g>
<g>
	<path class="st0" d="M26.25-137.75c0,1.53-1.26,2.77-2.81,2.77c-1.55,0-2.81-1.24-2.81-2.77c0-1.53,1.26-2.77,2.81-2.77
		C24.99-140.52,26.25-139.28,26.25-137.75"/>
	<path class="st0" d="M11.66-130c0.24-0.08,0.69-0.35,1-0.52c0.91-0.53,2.05-1.18,3.39-1.18c1.34,0,2.47,0.65,3.37,1.18
		c0.31,0.18,0.77,0.45,1.01,0.53c0.24-0.08,0.7-0.35,1.01-0.53c0.82-0.48,1.83-1.05,3.01-1.16l-3.07-2.54
		c-0.01-0.01-0.02-0.02-0.03-0.03l-7.38-6.09c-0.43-0.36-1.05-0.41-1.53-0.12l-6.49,3.77c-0.63,0.37-0.84,1.17-0.47,1.8
		c0.37,0.62,1.19,0.83,1.82,0.46l5.68-3.3l2,1.65l-6.31,4.64c0.68,0.23,1.31,0.57,1.89,0.89C10.9-130.36,11.4-130.08,11.66-130"/>
	<path class="st0" d="M20.43-123.35c-0.94,0-1.8-0.5-2.64-0.98c-0.63-0.36-1.28-0.74-1.74-0.74c-0.46,0-1.12,0.38-1.76,0.75
		c-0.83,0.48-1.69,0.98-2.62,0.98c-0.92,0-1.82-0.5-2.68-0.97c-0.67-0.37-1.36-0.75-1.82-0.75c-0.14,0-0.59,0.09-0.9,0.18
		c-0.48,0.13-0.96-0.14-1.09-0.61c-0.13-0.47,0.14-0.95,0.61-1.08c0.21-0.06,0.93-0.25,1.38-0.25c0.93,0,1.82,0.5,2.69,0.98
		c0.67,0.37,1.35,0.75,1.81,0.75c0.45,0,1.1-0.37,1.73-0.74c0.84-0.49,1.71-0.99,2.66-0.99c0.94,0,1.81,0.5,2.64,0.98
		c0.63,0.36,1.28,0.74,1.74,0.74c0.46,0,1.11-0.38,1.74-0.74c0.84-0.48,1.7-0.98,2.64-0.98c0.39,0,1.01,0.09,1.49,0.28
		c0.45,0.18,0.67,0.69,0.49,1.14c-0.18,0.45-0.7,0.66-1.16,0.48c-0.23-0.09-0.61-0.15-0.83-0.15c-0.46,0-1.11,0.38-1.74,0.74
		C22.23-123.85,21.37-123.35,20.43-123.35"/>
	<path class="st0" d="M20.43-126.81c-0.94,0-1.8-0.5-2.64-0.98c-0.63-0.37-1.28-0.74-1.74-0.74c-0.46,0-1.12,0.38-1.76,0.75
		c-0.83,0.48-1.69,0.98-2.62,0.98c-0.92,0-1.82-0.49-2.68-0.97c-0.67-0.37-1.36-0.75-1.82-0.75c-1.11,0-2.16,0.6-2.17,0.61
		c-0.42,0.25-0.97,0.11-1.22-0.3c-0.25-0.41-0.12-0.95,0.3-1.2c0.06-0.04,1.47-0.86,3.08-0.86c0.93,0,1.82,0.5,2.69,0.98
		c0.67,0.37,1.35,0.75,1.81,0.75c0.45,0,1.1-0.38,1.73-0.74c0.84-0.49,1.71-0.99,2.66-0.99c0.94,0,1.81,0.5,2.64,0.98
		c0.63,0.37,1.28,0.74,1.74,0.74c0.46,0,1.11-0.38,1.74-0.74c0.84-0.48,1.7-0.98,2.64-0.98c1.63,0,3.04,0.82,3.1,0.86
		c0.42,0.25,0.56,0.78,0.31,1.2c-0.25,0.41-0.79,0.55-1.22,0.3c-0.03-0.02-1.07-0.61-2.2-0.61c-0.46,0-1.11,0.38-1.74,0.74
		C22.23-127.31,21.37-126.81,20.43-126.81"/>
</g>
<path class="st1" d="M16-106.95c0,0-6.17,2.07-11.08,2.07c0,0-1.03,17.96,11.08,21.83h0c12.12-3.87,11.08-21.83,11.08-21.83
	C22.17-104.88,16-106.95,16-106.95"/>
<g>
	<g>
		<path class="st0" d="M14.76-94.8c0.02-0.03,0.04-0.06,0.07-0.09c1.49-1.56,2.98-3.12,4.48-4.68c0.47-0.49,1.27-0.52,1.76-0.08
			c0.52,0.47,0.57,1.25,0.11,1.77c-0.35,0.39-0.72,0.76-1.08,1.14c-1.48,1.55-2.96,3.09-4.44,4.64c-0.51,0.53-1.35,0.52-1.85-0.01
			c-0.97-1.05-1.94-2.09-2.9-3.14c-0.38-0.41-0.49-0.87-0.29-1.39c0.33-0.84,1.47-1.06,2.08-0.4c0.65,0.69,1.29,1.39,1.93,2.09
			C14.67-94.9,14.71-94.86,14.76-94.8"/>
	</g>
</g>
<g>
	<path class="st0" d="M16-82.49c-0.06,0-0.13-0.01-0.18-0.03c-5.14-1.65-8.76-6.06-10.45-12.76c-1.26-5-1.02-9.45-1.01-9.63
		c0.02-0.3,0.26-0.53,0.56-0.53c4.62,0,10.48-1.9,10.88-2.04c0.06-0.02,0.13-0.04,0.19-0.04c0.07,0,0.14,0.01,0.21,0.04
		c0.41,0.13,6.27,2.04,10.88,2.04c0.3,0,0.55,0.23,0.56,0.53c0.01,0.19,0.25,4.63-1.01,9.63c-1.69,6.69-5.3,11.1-10.43,12.76
		C16.14-82.5,16.07-82.49,16-82.49z M5.47-104.32c-0.02,1.32,0.02,4.93,1,8.79c1.6,6.31,4.8,10.3,9.53,11.88
		c4.73-1.58,7.93-5.58,9.53-11.88c0.98-3.87,1.03-7.48,1-8.79c-4.42-0.13-9.5-1.7-10.53-2.04C14.97-106.02,9.88-104.45,5.47-104.32z
		"/>
</g>
<g>
	<path class="st0" d="M21.31-57.68c0,2.8-2.27,5.07-5.07,5.07c-2.8,0-5.07-2.27-5.07-5.07c0-2.8,2.27-5.07,5.07-5.07
		C19.04-62.75,21.31-60.48,21.31-57.68"/>
	<path class="st0" d="M16.24-64.78c-3.92,0-7.1,3.19-7.1,7.1c0,3.92,3.19,7.1,7.1,7.1c3.92,0,7.1-3.19,7.1-7.1
		C23.35-61.6,20.16-64.78,16.24-64.78 M16.24-49.48c-4.52,0-8.2-3.68-8.2-8.2c0-4.52,3.68-8.2,8.2-8.2c4.52,0,8.2,3.68,8.2,8.2
		C24.45-53.16,20.77-49.48,16.24-49.48"/>
	<path class="st0" d="M7.48-61.79v-3.82c0-0.28-0.23-0.51-0.51-0.51c-0.28,0-0.51,0.23-0.51,0.51v2.47c0,0.52-0.47,1.1-0.68,1
		c-0.21-0.1-0.19-0.55-0.19-0.98v-2.49c0-0.28-0.23-0.51-0.51-0.51c-0.28,0-0.51,0.23-0.51,0.51v2.49c0,0.42,0.01,0.88-0.19,0.98
		c-0.21,0.1-0.68-0.48-0.68-1v-2.47c0-0.28-0.23-0.51-0.51-0.51c-0.28,0-0.51,0.23-0.51,0.51v3.82c0,1.28,1.57,2.1,1.77,3.18
		c0.19,1.09-0.52,3.04-0.75,4.89c-0.22,1.85,0.27,4.07,1.39,4.07s1.61-2.22,1.38-4.07c-0.22-1.85-0.94-3.81-0.74-4.89
		C5.91-59.7,7.48-60.51,7.48-61.79"/>
	<path class="st0" d="M28.86-53.71c-0.13-1.06-0.42-2.16-0.6-3.1c-0.02-0.17-0.03-0.34-0.03-0.49c-0.05-1.35,0.03-7.03,0-7.52
		c-0.03-0.49-0.04-1.2-0.41-1.23c-0.37-0.04-1.93,1.02-2.23,2.75c-0.3,1.73-0.37,4.46-0.06,5.02c0.3,0.55,1.11,0.95,1.19,1.26
		c0.01,0.03,0,0.09,0,0.15c-0.19,0.96-0.49,2.08-0.62,3.17c-0.22,1.85,0.27,4.07,1.39,4.07C28.59-49.64,29.08-51.86,28.86-53.71"/>
</g>
<g>
	<path class="st0" d="M23.95,80.1h-3.14v-1.3c0-0.27-0.22-0.49-0.49-0.49s-0.49,0.22-0.49,0.49v1.3h-7.65v-1.3
		c0-0.27-0.22-0.49-0.49-0.49s-0.49,0.22-0.49,0.49v1.3H8.05c-1.57,0-2.85,1.28-2.85,2.85v15.89c0,1.57,1.28,2.85,2.85,2.85h15.89
		c1.57,0,2.85-1.28,2.85-2.85V82.95C26.79,81.38,25.52,80.1,23.95,80.1z M8.05,81.08h3.14v1.61c0,0.27,0.22,0.49,0.49,0.49
		s0.49-0.22,0.49-0.49v-1.61h7.65v1.61c0,0.27,0.22,0.49,0.49,0.49s0.49-0.22,0.49-0.49v-1.61h3.14c1.03,0,1.86,0.84,1.86,1.86v3.3
		H6.19v-3.3C6.19,81.92,7.03,81.08,8.05,81.08z M23.95,100.71H8.05c-1.03,0-1.86-0.84-1.86-1.86V87.23h19.62v11.61
		C25.81,99.87,24.97,100.71,23.95,100.71z"/>
	<g>
		<path class="st0" d="M14.76,98.21h-2.44V93.5c0-0.57,0.01-1.1,0.04-1.57c-0.15,0.18-0.34,0.37-0.56,0.57l-1.01,0.83L9.54,91.8
			l3.05-2.49h2.17V98.21z"/>
		<path class="st0" d="M19.71,92.38c0.51,0,0.97,0.12,1.38,0.36c0.41,0.24,0.73,0.57,0.96,1.01c0.23,0.43,0.34,0.94,0.34,1.5
			c0,0.99-0.3,1.76-0.9,2.29c-0.6,0.53-1.5,0.8-2.72,0.8c-1.04,0-1.89-0.16-2.54-0.48v-1.97c0.35,0.16,0.75,0.3,1.2,0.4
			c0.44,0.11,0.83,0.16,1.15,0.16c0.45,0,0.79-0.09,1.03-0.28c0.24-0.19,0.36-0.47,0.36-0.84c0-0.34-0.12-0.61-0.37-0.8
			c-0.24-0.19-0.61-0.29-1.11-0.29c-0.38,0-0.78,0.07-1.22,0.21l-0.88-0.44l0.33-4.7h5.07v2h-3.03l-0.11,1.17
			c0.32-0.06,0.54-0.09,0.68-0.1C19.47,92.38,19.6,92.38,19.71,92.38z"/>
	</g>
</g>
<g>
	<path class="st0" d="M23.18,120.71c-0.02-0.04-0.06-0.07-0.1-0.1c-0.03,0.04-0.08,0.07-0.1,0.12c-0.23,0.52-0.59,0.9-1.12,1.13
		c-0.06,0.03-0.11,0.09-0.17,0.13c0.06,0.04,0.11,0.1,0.17,0.12c0.52,0.23,0.87,0.61,1.1,1.12c0.02,0.05,0.07,0.09,0.11,0.13
		c0.04-0.05,0.08-0.09,0.11-0.14c0.23-0.49,0.56-0.87,1.06-1.09c0.08-0.03,0.15-0.08,0.27-0.15c-0.09-0.06-0.13-0.09-0.18-0.11
		C23.8,121.65,23.42,121.25,23.18,120.71z"/>
	<path class="st0" d="M20.82,128.74c-1.29-1.15-2.64-2.37-4.01-3.64c-0.65-0.61-0.95-1.27-0.93-2.04c0.02-0.47,0.01-0.95,0.01-1.41
		c0-0.32,0-0.65,0-0.97c0.01-0.4,0.11-0.69,0.32-0.91c0.11-0.12,0.27-0.16,0.51-0.2c0.23,0.61,0.46,1.22,0.69,1.83l0.27,0.7
		c0.02,0.06,0.05,0.12,0.07,0.18l0.24,0.58l1.78-0.67l-1.11-2.93c0.26-0.04,0.51-0.08,0.75-0.11c0.53-0.05,0.87-0.31,1.05-0.8
		c0.24-0.64,0.52-1.28,0.78-1.9c0.11-0.26,0.22-0.52,0.33-0.78c0.02-0.06,0.04-0.11,0.07-0.18l0.3-0.82H7.3v3.92l0.37,0.13
		c0.18,0.06,0.35,0.12,0.53,0.18c0.4,0.13,0.77,0.26,1.14,0.41c0.34,0.14,0.62,0.33,0.82,0.57c0.14,0.17,0.2,0.32,0.19,0.49
		c-0.01,0.29-0.01,0.57-0.02,0.86c-0.01,0.47-0.01,0.95-0.04,1.42c-0.03,0.54-0.26,1.06-0.49,1.55c-0.26,0.54-0.54,1.09-0.81,1.63
		c-0.18,0.36-0.36,0.71-0.53,1.07c-0.42,0.84-0.61,1.74-0.61,2.75c0.01,2.13,0.01,4.3,0.01,6.4c0,0.82,0,1.64,0,2.47v0.84h14.16
		l0-2.83c0-1.66,0-3.38,0-5.07C22,130.35,21.6,129.44,20.82,128.74z M9.74,118.28c-0.4-0.16-0.8-0.29-1.2-0.43
		c-0.05-0.02-0.1-0.03-0.15-0.05v-2.05h11.96c-0.04,0.09-0.07,0.17-0.11,0.26c-0.27,0.63-0.54,1.28-0.79,1.94
		c-0.02,0.06-0.04,0.08-0.04,0.08c-0.01,0-0.03,0.01-0.11,0.02c-0.35,0.04-2.5,0.4-2.55,0.41c-0.41,0.05-0.92,0.12-1.33,0.55
		c-0.41,0.43-0.62,0.97-0.63,1.65c0,0.25,0,0.51,0,0.76h-3.38c0-0.06,0-0.13,0-0.19c0-0.28,0.01-0.56,0.02-0.84
		c0.01-0.44-0.13-0.84-0.44-1.22C10.68,118.79,10.26,118.49,9.74,118.28z M20.92,136.51l0,1.74H8.94c0-0.74,0-1.48,0-2.22
		c0-2.1,0-4.27-0.01-6.41c0-0.84,0.16-1.58,0.5-2.26c0.18-0.35,0.35-0.71,0.53-1.06c0.27-0.54,0.55-1.09,0.81-1.64
		c0.28-0.57,0.54-1.2,0.59-1.9h3.42c0,0.09,0,0.18,0,0.26c-0.04,1.09,0.39,2.05,1.28,2.88c1.37,1.28,2.73,2.51,4.03,3.66
		c0.56,0.49,0.82,1.09,0.82,1.89C20.92,133.14,20.92,134.86,20.92,136.51z"/>
	<rect x="22.98" y="116.21" class="st0" width="3.19" height="0.81"/>
	<path class="st0" d="M25.17,114.46c-0.13-0.25-0.24-0.49-0.37-0.74c-0.84,0.42-1.67,0.83-2.51,1.25c0.12,0.25,0.24,0.48,0.37,0.74
		C23.5,115.3,24.32,114.89,25.17,114.46z"/>
	<path class="st0" d="M22.29,118.31c0.84,0.42,1.66,0.83,2.51,1.25c0.12-0.25,0.24-0.48,0.37-0.74c-0.84-0.42-1.66-0.83-2.51-1.25
		C22.54,117.82,22.42,118.05,22.29,118.31z"/>
	<polygon class="st0" points="13.92,131.04 12.05,131.04 12.05,133.14 9.95,133.14 9.95,135.02 12.05,135.02 12.05,137.12 
		13.92,137.12 13.92,135.02 16.02,135.02 16.02,133.14 13.92,133.14 	"/>
</g>
<g>
	<g>
		<path class="st0" d="M9.69,169.35c-0.95,1.83-2.7,5.37-2.27,5.79c0.58,0.58,3.69-0.93,3.69-0.93s1.32,3.3,2.05,3.3
			c0.58,0,2.01-4.27,2.59-6.08C13.48,171.39,11.39,170.62,9.69,169.35z"/>
		<path class="st0" d="M16,171.45c-0.06,0-0.11,0-0.17,0c0.38,1.6,1.22,4.85,1.71,4.85c0.65,0,2.29-3.01,2.29-3.01
			s3.03,1.61,3.6,1.05c0.41-0.41-0.77-3.22-1.46-4.74C20.27,170.76,18.22,171.45,16,171.45z"/>
	</g>
	<g>
		<path class="st0" d="M16,150.48c-5.49,0-9.95,4.46-9.95,9.95s4.46,9.95,9.95,9.95s9.95-4.46,9.95-9.95S21.49,150.48,16,150.48z
			 M13.08,156.86h2.02v0.57h-0.68v2.07h-0.66v-2.07h-0.68V156.86z M9.07,157.18c0.24-0.24,0.58-0.36,1.01-0.36
			c0.26,0,0.52,0.05,0.77,0.16l0.06,0.02l-0.23,0.55l-0.06-0.03c-0.17-0.09-0.36-0.13-0.54-0.13c-0.21,0-0.38,0.07-0.51,0.21
			c-0.13,0.14-0.19,0.34-0.19,0.58c0,0.26,0.05,0.45,0.15,0.58c0.1,0.13,0.24,0.19,0.44,0.19c0.09,0,0.18-0.01,0.27-0.02v-0.41H9.77
			v-0.57h1.12v1.41l-0.04,0.01c-0.16,0.05-0.32,0.09-0.47,0.11c-0.14,0.02-0.29,0.03-0.45,0.03c-0.4,0-0.7-0.12-0.91-0.35
			c-0.21-0.23-0.32-0.57-0.32-1C8.7,157.75,8.83,157.42,9.07,157.18z M11.66,164.39c-0.29,0.22-0.68,0.34-1.18,0.34H8.84v-4.39h1.37
			c0.62,0,1.07,0.09,1.35,0.27c0.28,0.18,0.42,0.46,0.42,0.85c0,0.26-0.06,0.48-0.18,0.65c-0.12,0.17-0.29,0.27-0.49,0.3v0.03
			c0.28,0.06,0.48,0.18,0.6,0.35c0.12,0.17,0.18,0.4,0.18,0.68C12.09,163.85,11.95,164.16,11.66,164.39z M12.93,157.42h-0.91v0.42
			h0.85v0.56h-0.85v0.52h0.91v0.57h-1.57v-2.63h1.57V157.42z M15.5,161.1h-1.6v0.96h1.49v0.76H13.9v1.13h1.6v0.77h-2.53v-4.39h2.53
			V161.1z M20.99,156.86h1.57v0.56h-0.91v0.42h0.85v0.56h-0.85v0.52h0.91v0.57h-1.57V156.86z M18.31,156.86h0.66v0.98h0.87v-0.98
			h0.66v2.63h-0.66v-1.08h-0.87v1.08h-0.66V156.86z M16.03,156.86h2.02v0.57h-0.68v2.07h-0.66v-2.07h-0.68V156.86z M18.57,164.44
			c-0.28,0.23-0.68,0.34-1.19,0.34c-0.47,0-0.88-0.09-1.24-0.26v-0.86c0.3,0.13,0.55,0.22,0.75,0.28c0.21,0.05,0.39,0.08,0.56,0.08
			c0.2,0,0.36-0.04,0.47-0.12c0.11-0.08,0.16-0.19,0.16-0.35c0-0.09-0.02-0.16-0.07-0.23c-0.05-0.07-0.12-0.13-0.21-0.19
			c-0.09-0.06-0.28-0.16-0.57-0.3c-0.27-0.13-0.47-0.25-0.6-0.36c-0.13-0.12-0.24-0.25-0.32-0.41c-0.08-0.15-0.12-0.33-0.12-0.54
			c0-0.39,0.13-0.69,0.39-0.92c0.26-0.22,0.63-0.33,1.09-0.33c0.23,0,0.45,0.03,0.65,0.08c0.21,0.05,0.42,0.13,0.65,0.23l-0.3,0.72
			c-0.23-0.1-0.43-0.16-0.58-0.2c-0.15-0.04-0.3-0.06-0.45-0.06c-0.18,0-0.31,0.04-0.41,0.12c-0.09,0.08-0.14,0.19-0.14,0.32
			c0,0.08,0.02,0.15,0.06,0.21c0.04,0.06,0.1,0.12,0.18,0.18c0.08,0.06,0.28,0.16,0.59,0.31c0.41,0.2,0.69,0.39,0.84,0.59
			c0.15,0.2,0.23,0.44,0.23,0.72C19,163.9,18.86,164.21,18.57,164.44z M22.68,161.11h-1.19v3.61h-0.93v-3.61h-1.19v-0.77h3.31
			V161.11z"/>
		<path class="st0" d="M10.35,162.81H9.77v1.14h0.61c0.26,0,0.45-0.05,0.57-0.15c0.12-0.1,0.18-0.25,0.18-0.45
			C11.13,162.99,10.87,162.81,10.35,162.81z"/>
		<path class="st0" d="M10.86,161.96c0.11-0.08,0.17-0.21,0.17-0.39c0-0.17-0.06-0.29-0.18-0.36c-0.12-0.07-0.32-0.11-0.58-0.11
			H9.77v0.98h0.54C10.56,162.07,10.74,162.03,10.86,161.96z"/>
	</g>
</g>
<g>
	<path class="st0" d="M9.47,237.73c-0.41,0-0.51,0.33-0.59,0.56c-0.08,0.25,0,1.27,0.2,1.96c0.23,0.96,0.68,1.79,1.25,2.59
		c0.08,0.12,0.16,0.25,0.26,0.38l-0.05,0.03c-0.05-0.03-0.12-0.05-0.15-0.08c-0.71-0.58-1.42-1.15-2.11-1.75
		c-0.56-0.51-0.84-1.15-0.97-1.93c-0.08-0.49-0.13-0.74-0.23-1.6c-0.03-0.4-0.08-0.79-0.2-1.17c0,0-0.3-0.94-0.81-0.99
		c-0.61-0.07-0.72,0.89-0.72,0.89c-0.16,1.71-0.12,1.84-0.02,3.57c0.07,1.22,0.59,2.35,1.32,3.36c0.69,0.92,1.53,1.68,2.49,2.32
		c0.44,0.3,0.89,0.61,1.32,0.96c0.86,0.68,1.37,1.55,1.56,2.62c0.03,0.2,0.05,0.4,0.08,0.59h3.56c0-0.71,0.03-1.4-0.02-2.09
		c-0.05-0.71-0.13-1.42-0.28-2.12c-0.2-0.95-0.81-1.68-1.5-2.34c-0.66-0.63-1.33-1.25-1.94-1.93c-0.92-1-1.65-2.04-1.93-3.39
		C9.99,238.16,9.88,237.73,9.47,237.73"/>
	<path class="st0" d="M22.02,238.16c-0.3,1.35-1,2.39-1.93,3.39c-0.63,0.68-1.28,1.3-1.94,1.93c-0.69,0.66-1.32,1.38-1.5,2.34
		c-0.15,0.69-0.23,1.42-0.28,2.12c-0.05,0.69-0.02,1.38-0.02,2.09h3.54c0.03-0.2,0.05-0.4,0.08-0.59c0.2-1.07,0.72-1.94,1.56-2.62
		c0.43-0.33,0.86-0.64,1.32-0.96c0.96-0.64,1.81-1.38,2.49-2.32c0.74-1,1.25-2.14,1.32-3.36c0.1-1.71,0.16-1.86-0.02-3.57
		c0,0-0.12-0.94-0.72-0.89c-0.53,0.05-0.81,0.99-0.81,0.99c-0.1,0.38-0.15,0.77-0.2,1.17c-0.08,0.86-0.15,1.1-0.23,1.6
		c-0.13,0.77-0.4,1.42-0.97,1.93c-0.68,0.61-1.4,1.17-2.11,1.75c-0.05,0.03-0.1,0.05-0.15,0.08l-0.05-0.03
		c0.08-0.13,0.16-0.25,0.26-0.38c0.58-0.79,1.02-1.63,1.25-2.59c0.2-0.69,0.28-1.71,0.2-1.96c-0.08-0.23-0.16-0.56-0.59-0.56
		C22.13,237.73,22.02,238.16,22.02,238.16"/>
	<path class="st0" d="M17.4,227.35c0,0.77-0.63,1.4-1.4,1.4c-0.77,0-1.4-0.63-1.4-1.4c0-0.77,0.63-1.4,1.4-1.4
		C16.78,225.95,17.4,226.58,17.4,227.35"/>
	<path class="st0" d="M19.43,231.26v-0.71c0-0.51-0.58-1.42-1.5-1.42H16h-1.93c-0.92,0-1.5,0.92-1.5,1.42v1.33v3.29
		c0,0.33,0.26,0.59,0.59,0.59s0.59-0.26,0.59-0.59v-3.87h0.35v3.26v0.07v7.48c0,0.48,0.38,0.86,0.86,0.86
		c0.48,0,0.86-0.38,0.86-0.86v-6.27h0.16H16h0.16v6.27c0,0.48,0.38,0.86,0.86,0.86c0.48,0,0.86-0.38,0.86-0.86v-7.48v-0.07v-3.26
		h0.35v3.89c0,0.33,0.26,0.59,0.61,0.59c0.33,0,0.59-0.26,0.59-0.59V231.26"/>
</g>
<g>
	<path class="st0" d="M9.91,196.83h4.21c0.6,0,1.09-0.49,1.09-1.09v-1.52c0-0.6-0.49-1.09-1.09-1.09H9.91
		c-0.6,0-1.09,0.49-1.09,1.09v1.52C8.82,196.34,9.31,196.83,9.91,196.83"/>
	<path class="st0" d="M17.03,196.83h4.21c0.6,0,1.09-0.49,1.09-1.09v-1.52c0-0.6-0.49-1.09-1.09-1.09h-4.21
		c-0.6,0-1.09,0.49-1.09,1.09v1.52C15.94,196.34,16.43,196.83,17.03,196.83"/>
	<line class="st0" x1="15.67" y1="196.86" x2="15.67" y2="196.86"/>
	<path class="st0" d="M27.48,206.01c-0.01-0.18-0.1-0.46-0.23-0.51c-0.34-0.13-0.32-0.37-0.3-0.63c0.08-0.99-0.05-1.97-0.29-2.93
		c-0.09-0.35-0.34-0.66-0.55-0.96c-0.17-0.25-0.25-0.49-0.25-0.79c0.01-2.48,0.01-5.68,0.01-8.17c0-0.61-0.08-0.71-0.68-0.8
		l-19.07,0c-0.54,0.08-0.64,0.19-0.65,0.75c0,2.54,0,5.78-0.01,8.32c0,0.18-0.07,0.39-0.16,0.55c-0.29,0.51-0.79,0.93-0.64,1.61
		c0.01,0.03-0.03,0.07-0.04,0.1c-0.08,0.34-0.2,0.68-0.23,1.03c-0.04,0.5,0,1-0.02,1.5c0,0.11-0.08,0.26-0.17,0.31
		c-0.28,0.14-0.37,0.36-0.37,0.64c0,0.6,0,1.2,0,1.8c0,0.59,0.17,0.75,0.76,0.76c0.31,0,0.72-0.11,0.91,0.05
		c0.21,0.16,0.22,0.58,0.3,0.89c0.33,1.26,0.11,1.24,1.65,1.22c0.44-0.01,0.6-0.14,0.71-0.57c0.13-0.53,0.27-1.05,0.4-1.58h14.19
		c0.13,0.5,0.25,0.99,0.38,1.47c0.15,0.6,0.26,0.68,0.88,0.68c1.34,0.02,1.21-0.02,1.48-1.15c0.08-0.32,0.08-0.76,0.29-0.93
		c0.21-0.17,0.64-0.06,0.97-0.08c0.02,0,0.05,0,0.07,0c0.44-0.01,0.64-0.2,0.65-0.64C27.5,207.31,27.51,206.66,27.48,206.01
		 M7.35,192.17l16.51,0.03c0.95,0,0.94,0.89,0.94,0.99c0.02,1.9,0.01,3.79,0.01,5.79c-0.12-0.15-0.19-0.22-0.24-0.31
		c-0.4-0.6-0.82-1.19-1.2-1.81h-0.63c-0.33,0.41-0.83,0.67-1.39,0.67h-4.21c-0.56,0-1.06-0.26-1.39-0.67h-0.06h-0.06
		c-0.33,0.41-0.83,0.67-1.39,0.67h-4.21c-0.56,0-1.07-0.26-1.39-0.67H7.98c-0.44,0.69-0.91,1.36-1.42,2.13
		c-0.01-0.2-0.03-0.31-0.03-0.41c0-1.75,0-3.5-0.01-5.24C6.52,193.09,6.57,192.17,7.35,192.17 M25.83,205.36H5.5v-2.11h20.33V205.36
		z"/>
</g>
<g>
	<path class="st0" d="M24.7,280.21c-0.1,0-0.21-0.02-0.3-0.06c-0.68-0.28-1.84-0.95-3.54-2.53c-0.35,0.04-0.69,0.06-1.02,0.06
		c-3.97,0-7.2-2.64-7.2-5.88c0-3.24,3.23-5.88,7.2-5.88c3.97,0,7.2,2.64,7.2,5.88c0,1.61-0.81,3.15-2.24,4.26
		c0.01,0.68,0.12,1.81,0.64,3.05c0.12,0.3,0.06,0.64-0.17,0.86C25.11,280.13,24.91,280.21,24.7,280.21z M24.52,279.49L24.52,279.49
		C24.52,279.49,24.52,279.49,24.52,279.49z M21.19,276.58l0.17,0.16c1.36,1.28,2.34,1.95,3,2.3c-0.49-1.39-0.55-2.6-0.54-3.24
		l0-0.25l0.2-0.14c1.29-0.93,2.04-2.25,2.04-3.62c0-2.7-2.79-4.9-6.22-4.9c-3.43,0-6.22,2.2-6.22,4.9c0,2.7,2.79,4.9,6.22,4.9
		c0.36,0,0.72-0.03,1.11-0.08L21.19,276.58z"/>
	<g>
		<path class="st1" d="M24.47,279.7C24.47,279.69,24.47,279.69,24.47,279.7C24.47,279.69,24.47,279.69,24.47,279.7z"/>
		<path class="st0" d="M11.37,271.87c0-0.86,0.19-1.68,0.53-2.44c-3.87,0.19-6.94,2.77-6.94,5.93c0,1.76,0.96,3.34,2.47,4.43
			c0.02,0.76-0.07,2.21-0.74,3.84c-0.11,0.27,0.16,0.55,0.43,0.44c0.72-0.3,2-1.04,3.93-2.86c0.42,0.06,0.86,0.1,1.3,0.1
			c2.51,0,4.72-1,6.05-2.53C14.43,278.24,11.37,275.35,11.37,271.87z"/>
	</g>
</g>
</svg>
