<?xml version="1.0" encoding="utf-8"?>
<!-- Generator: Adobe Illustrator 25.2.0, SVG Export Plug-In . SVG Version: 6.00 Build 0)  -->
<svg version="1.1" id="Livello_1" xmlns="http://www.w3.org/2000/svg" xmlns:xlink="http://www.w3.org/1999/xlink" x="0px" y="0px"
	 viewBox="0 0 200 200" style="enable-background:new 0 0 200 200;" xml:space="preserve">
<style type="text/css">
	.st0{fill:#009DE0;}
	.st1{display:none;}
	
		.st2{display:inline;fill:#009DE0;stroke:#009DE0;stroke-width:7.5037;stroke-linecap:round;stroke-linejoin:round;stroke-miterlimit:10;}
	.st3{fill:none;stroke:#009DE0;stroke-width:7.0682;stroke-linecap:round;stroke-linejoin:round;stroke-miterlimit:10;}
	.st4{fill:#009DE0;stroke:#009DE0;stroke-width:6.026;stroke-linecap:round;stroke-linejoin:round;stroke-miterlimit:10;}
	.st5{fill:none;stroke:#009DE0;stroke-width:7;stroke-linecap:round;stroke-linejoin:round;stroke-miterlimit:10;}
	.st6{fill:none;stroke:#FFFFFF;stroke-width:4;stroke-linecap:round;stroke-linejoin:round;stroke-miterlimit:10;}
	.st7{fill:none;stroke:#009DE0;stroke-width:10.1014;stroke-miterlimit:10;}
	.st8{fill:none;stroke:#009DE0;stroke-width:6.7343;stroke-linecap:round;stroke-linejoin:round;stroke-miterlimit:10;}
</style>
<g>
	<path class="st0" d="M112.7,122.2c0.1,2.4,0.3,4.6,0.4,6.8c0.4,7.5,0.7,14.9,1.1,22.4c0.3,4.7-0.2,4.7,5,4.7c2.5,0,2.9-0.3,3.1-2.9
		c0.5-9.6,1-19.2,1.4-28.8c0.1-2.5,0.3-2.7,3-2c0.5,9.4,1,18.9,1.4,28.4c0.2,5.3,0.2,5.3,5.4,5.2c2.1,0,2.6-0.4,2.7-2.5
		c0.4-7.9,0.8-15.8,1.3-23.7c0.1-2.5,0.3-5,0.4-7.6c1.8,0,3.5,0,5.1,0c2.1,0,2.5-0.5,1.9-2.5c-2.2-9-4.4-17.9-6.8-26.9
		c-0.7-2.8-0.8-5.6-0.6-9c3.2,5.6,5.1,11.2,6.3,17.1c0.2,1.1,0.9,2.6,1.8,2.9c1.8,0.7,2.6,2.2,3.6,3.5c1.2,1.5,2.4,3.2,4,4.2
		c1.9,1.3,2.5,2.7,2.2,4.8c-0.3,2.4-0.1,4.9-0.8,7.2c-1.2,4-3,7.8-4.6,11.6c-0.5,1.3-0.2,1.7,1.2,1.7c1.4,0,2.8,0,4.2,0
		c0.1,0.6,0.2,1,0.2,1.4c0.3,5,0.5,9.9,0.7,14.9c0.1,2.8,0.1,2.8,2.8,2.9c1.6,0.1,2.4-0.4,2.4-2.1c0-1.1,0.1-2.2,0.2-3.3
		c0.2-4.5,0.5-9,0.7-13.5c1.5-0.4,1.5,0.4,1.6,1.4c0.2,5.2,0.5,10.4,0.7,15.6c0.1,1.4,0.5,2.1,2,2.1c2.9,0,3.1,0,3.2-1.9
		c0.2-3.3,0.4-6.7,0.5-10c0.1-2.4,0.3-4.7,0.4-7.3h5.8c-0.3-0.9-0.4-1.6-0.7-2.3c-1.5-3.7-2.9-7.4-4.4-11c-1.3-3-0.5-6.1-0.7-9.4
		c0.4,0.3,0.5,0.4,0.6,0.5c0.2,0.3,0.5,0.6,0.7,0.9c2.1,2.9,3.1,6.3,3.6,9.8c0.3,1.9,1.6,3,3.2,2.7c1.6-0.3,2.4-1.6,2.2-3.6
		c-0.5-4.4-2.2-8.4-4.6-12.1c-4-6.2-11.5-8.9-18.4-6.6c-1.5,0.5-2.4,0.3-3.3-0.8c-0.8-1-1.7-1.9-2.5-2.9c-0.3-0.4-0.5-1-0.6-1.5
		c-0.4-1.9-0.6-3.9-1.1-5.7c-1.9-7.2-4.5-14-9.4-19.8c-5-6-11.3-8.8-19.2-7.7c-5.3,0.7-9.5,3.4-12.9,7.4c-2.1,2.6-3.8,5.4-5.7,8.2
		c-0.4-0.8-0.9-1.7-1.3-2.7c-4.6-8.7-11.7-13.5-21.7-13.6c-8.3-0.1-15.1,2.9-20.1,9.6c-4.8,6.5-7,13.9-7.3,21.8
		c-0.1,2.6-0.9,4.5-2.7,6.1c-0.4,0.3-0.8,0.7-1.1,1c-0.8,1-1.7,1.1-2.9,0.6c-6.1-2.2-12.4-0.7-16.5,4.3c-3.7,4.4-5.1,9.7-4.9,15.4
		c0,0.7,0.8,1.7,1.6,2.1c1.8,1,3.7-0.3,3.8-2.5c0.1-3.3,0.8-6.4,2.5-9.3c0.2,0.6,0.1,1.2,0.2,1.8c0.4,11.8,0.7,23.6,1.1,35.5
		c0.1,2.8,0.2,2.7,3.1,2.8c1.5,0,2-0.6,2.1-2.1c0.2-5.2,0.5-10.4,0.7-15.6c0.1-2,0.3-4.1,0.4-6.3c0.6,0,1,0.1,1.5,0.1
		c0.1,2.3,0.2,4.4,0.3,6.5c0.3,5,0.5,10,0.8,15c0,0.7,0.3,1.7,0.8,2c2.1,1.2,4.3,0,4.4-2.4c0.4-12.8,0.7-25.5,1.1-38.3
		c0-0.7,0.4-1.5,0.9-2.1c2.1-2.4,4.2-4.7,6.4-7.1c0.4-0.4,0.9-0.8,1.4-0.9c2.7-0.7,3.8-2.2,4-5c0.2-2.8,0.4-5.6,1.1-8.3
		c0.6-2.6,1.8-5.1,2.7-7.7c0.2,0.1,0.4,0.1,0.6,0.2c0,0.6,0,1.2,0,1.8c0.1,10,0,20.1,0.3,30.1c0.4,12,1.1,24,1.7,36
		c0.2,3.9,0.3,3.9,4.1,3.9c0.4,0,0.9,0,1.3,0c2,0,2.5-0.5,2.6-2.4c0.7-12.8,1.3-25.5,2-38.3c0.1-1.1,0.2-2.3,0.3-3.4h2.5
		c0.1,0.3,0.2,0.4,0.2,0.6c0.4,6.9,0.7,13.7,1,20.6c0.3,6.9,0.7,13.8,1,20.7c0.1,1.5,0.8,2.3,2.3,2.3c1,0,2,0,3,0
		c2.1,0,2.6-0.6,2.7-2.7c0.1-3.3,0.3-6.7,0.5-10c0.5-10,1.2-19.9,1.5-29.9c0.3-9.2,0.1-18.4,0.1-27.6c0-0.6,0-1.1,0-1.7
		c0.6,0.4,0.8,0.9,1,1.3c2.5,4.8,3.2,10,3.5,15.3c0.1,2.5,1.9,4.3,4.4,4.3c2.4,0.1,4.3-1.8,4.7-4.3c0.3-2.6,0.7-5.2,1.5-7.7
		c1-3.1,2.4-6,3.7-9c0.2,0.1,0.4,0.1,0.7,0.2c-0.1,2.2,0,4.6-0.5,6.7c-2.3,9.6-4.7,19.2-7.1,28.9c-0.5,1.8-0.1,2.4,1.8,2.4
		C109.1,122.2,110.9,122.2,112.7,122.2 M90.3,54.3c0-5.6-4.6-10.2-10.2-10.2c-5.6,0-10.3,4.7-10.2,10.3c0,5.5,4.6,10.1,10.1,10.1
		C85.7,64.5,90.3,59.9,90.3,54.3 M135.5,54.3c0-5.6-4.6-10.2-10.2-10.2c-5.6,0-10.2,4.7-10.2,10.3c0,5.5,4.6,10.1,10.1,10.1
		C130.9,64.5,135.5,59.9,135.5,54.3 M41.3,88.9c-4.1,0-7.4,3.3-7.4,7.4c0,4.1,3.3,7.3,7.4,7.3c4.1,0,7.5-3.3,7.5-7.4
		C48.8,92.2,45.4,88.9,41.3,88.9 M163.5,88.9c-4.1,0-7.5,3.3-7.5,7.4c0,4.1,3.4,7.4,7.5,7.4c4.1,0,7.3-3.2,7.4-7.3
		C170.9,92.2,167.6,88.9,163.5,88.9"/>
	<path class="st0" d="M112.7,122.2c-1.9,0-3.6,0-5.3,0c-1.9,0-2.3-0.5-1.8-2.4c2.4-9.6,4.9-19.2,7.1-28.9c0.5-2.2,0.3-4.5,0.5-6.7
		c-0.2-0.1-0.4-0.1-0.7-0.2c-1.3,3-2.7,5.9-3.7,9c-0.8,2.5-1.1,5.1-1.5,7.7c-0.3,2.5-2.2,4.4-4.7,4.3c-2.5-0.1-4.3-1.8-4.4-4.3
		c-0.3-5.3-1-10.5-3.5-15.3c-0.2-0.4-0.5-0.9-1-1.3c0,0.6,0,1.1,0,1.7c0,9.2,0.2,18.4-0.1,27.6c-0.3,10-1,20-1.5,29.9
		c-0.2,3.3-0.3,6.7-0.5,10c-0.1,2.1-0.6,2.7-2.7,2.7c-1,0-2,0-3,0c-1.5,0-2.2-0.8-2.3-2.3c-0.3-6.9-0.7-13.8-1-20.7
		c-0.3-6.9-0.7-13.7-1-20.6c0-0.2-0.1-0.3-0.2-0.6h-2.5c-0.1,1.1-0.2,2.3-0.3,3.4c-0.7,12.8-1.3,25.5-2,38.3
		c-0.1,1.9-0.6,2.4-2.6,2.4c-0.4,0-0.9,0-1.3,0c-3.8,0-3.9-0.1-4.1-3.9c-0.6-12-1.3-24-1.7-36c-0.3-10-0.2-20.1-0.3-30.1
		c0-0.6,0-1.2,0-1.8c-0.2-0.1-0.4-0.1-0.6-0.2c-0.9,2.5-2.1,5-2.7,7.7c-0.6,2.7-0.9,5.5-1.1,8.3c-0.2,2.9-1.3,4.3-4,5
		c-0.5,0.1-1,0.5-1.4,0.9c-2.2,2.3-4.3,4.7-6.4,7.1c-0.5,0.6-0.9,1.4-0.9,2.1c-0.4,12.8-0.7,25.5-1.1,38.3c-0.1,2.3-2.3,3.6-4.4,2.4
		c-0.5-0.3-0.8-1.3-0.8-2c-0.3-5-0.5-10-0.8-15.1c-0.1-2.1-0.2-4.2-0.3-6.5c-0.5,0-1-0.1-1.5-0.1c-0.1,2.2-0.3,4.2-0.4,6.3
		c-0.3,5.2-0.5,10.4-0.7,15.6c-0.1,1.5-0.6,2.1-2.1,2.1c-2.8,0-3,0-3.1-2.8c-0.4-11.8-0.8-23.6-1.1-35.5c0-0.6,0-1.2-0.2-1.8
		c-1.7,2.8-2.4,6-2.5,9.3c-0.1,2.2-2,3.5-3.8,2.5c-0.7-0.4-1.5-1.4-1.6-2.1c-0.2-5.7,1.3-11,4.9-15.4c4.2-5,10.4-6.5,16.5-4.3
		c1.2,0.4,2.1,0.3,2.9-0.6c0.3-0.4,0.7-0.7,1.1-1c1.8-1.6,2.6-3.5,2.7-6.1c0.3-7.9,2.5-15.4,7.3-21.9c5-6.7,11.8-9.7,20.1-9.6
		c10,0.2,17.1,4.9,21.7,13.6c0.5,0.9,1,1.9,1.4,2.7c1.9-2.7,3.6-5.6,5.7-8.2c3.3-4,7.5-6.7,12.9-7.4c7.9-1.1,14.2,1.8,19.2,7.7
		c4.8,5.8,7.5,12.6,9.4,19.8c0.5,1.9,0.7,3.8,1.1,5.7c0.1,0.5,0.3,1.1,0.6,1.5c0.8,1,1.7,1.9,2.5,2.9c0.9,1.1,1.8,1.3,3.3,0.8
		c6.9-2.3,14.5,0.4,18.4,6.6c2.4,3.7,4.1,7.6,4.6,12.1c0.2,2-0.5,3.2-2.2,3.6c-1.5,0.3-2.9-0.8-3.2-2.7c-0.6-3.5-1.5-6.8-3.6-9.8
		c-0.2-0.3-0.5-0.6-0.7-0.9c-0.1-0.1-0.2-0.2-0.6-0.5c0.2,3.3-0.6,6.4,0.7,9.4c1.5,3.6,3,7.3,4.4,11c0.3,0.6,0.4,1.3,0.7,2.3h-5.8
		c-0.1,2.6-0.3,4.9-0.4,7.3c-0.2,3.3-0.3,6.7-0.5,10c-0.1,1.9-0.4,1.9-3.2,1.9c-1.5,0-1.9-0.7-1.9-2.1c-0.2-5.2-0.5-10.4-0.7-15.6
		c0-1-0.1-1.8-1.6-1.4c-0.2,4.5-0.5,9-0.7,13.5c-0.1,1.1-0.2,2.2-0.2,3.3c0,1.7-0.8,2.2-2.4,2.1c-2.7-0.1-2.7-0.1-2.8-2.9
		c-0.2-5-0.5-9.9-0.7-14.9c0-0.4-0.1-0.9-0.2-1.4c-1.5,0-2.8,0-4.2,0c-1.3,0-1.7-0.4-1.2-1.7c1.6-3.9,3.4-7.7,4.6-11.6
		c0.7-2.3,0.5-4.8,0.8-7.2c0.3-2.1-0.4-3.6-2.2-4.8c-1.6-1.1-2.8-2.7-4-4.2c-1.1-1.3-1.9-2.7-3.6-3.5c-0.9-0.4-1.6-1.9-1.8-2.9
		c-1.2-5.9-3.1-11.4-6.3-17.1c-0.2,3.3-0.1,6.1,0.6,9c2.3,8.9,4.5,17.9,6.8,26.9c0.5,2,0.2,2.5-1.9,2.5c-1.7,0-3.3,0-5.1,0
		c-0.1,2.6-0.3,5.1-0.4,7.6c-0.4,7.9-0.8,15.8-1.3,23.7c-0.1,2.1-0.6,2.5-2.7,2.5c-5.2,0.1-5.2,0.1-5.4-5.2
		c-0.4-9.5-0.9-18.9-1.4-28.4c-2.7-0.7-2.9-0.5-3,2c-0.5,9.6-0.9,19.2-1.4,28.8c-0.1,2.5-0.5,2.8-3.1,2.9c-5.3,0.1-4.8,0-5-4.7
		c-0.4-7.5-0.8-14.9-1.1-22.4C113,126.8,112.9,124.6,112.7,122.2"/>
	<path class="st0" d="M90.3,54.3c0,5.6-4.6,10.2-10.2,10.2c-5.5,0-10.1-4.6-10.1-10.1c0-5.5,4.6-10.2,10.2-10.3
		C85.8,44.1,90.3,48.7,90.3,54.3"/>
	<path class="st0" d="M135.5,54.3c0,5.6-4.7,10.2-10.3,10.2c-5.5,0-10.1-4.6-10.1-10.1c0-5.6,4.6-10.2,10.2-10.3
		C130.9,44.1,135.6,48.7,135.5,54.3"/>
	<path class="st0" d="M41.3,88.9c4.1,0,7.5,3.3,7.5,7.4c0,4.1-3.4,7.4-7.5,7.4c-4.1,0-7.3-3.3-7.4-7.3
		C33.8,92.2,37.1,88.9,41.3,88.9"/>
	<path class="st0" d="M163.5,88.9c4.2,0,7.4,3.3,7.3,7.5c0,4.1-3.3,7.3-7.4,7.3c-4.1,0-7.5-3.3-7.5-7.4
		C156,92.2,159.4,88.9,163.5,88.9"/>
</g>
</svg>
