<?xml version="1.0" encoding="utf-8"?>
<!-- Generator: Adobe Illustrator 25.2.0, SVG Export Plug-In . SVG Version: 6.00 Build 0)  -->
<svg version="1.1" id="Livello_1" xmlns="http://www.w3.org/2000/svg" xmlns:xlink="http://www.w3.org/1999/xlink" x="0px" y="0px"
	 viewBox="0 0 200 200" style="enable-background:new 0 0 200 200;" xml:space="preserve">
<style type="text/css">
	.st0{fill:#009DE0;}
	.st1{display:none;}
	
		.st2{display:inline;fill:#009DE0;stroke:#009DE0;stroke-width:7.5037;stroke-linecap:round;stroke-linejoin:round;stroke-miterlimit:10;}
	.st3{fill:none;stroke:#009DE0;stroke-width:7.0682;stroke-linecap:round;stroke-linejoin:round;stroke-miterlimit:10;}
	.st4{fill:#009DE0;stroke:#009DE0;stroke-width:6.026;stroke-linecap:round;stroke-linejoin:round;stroke-miterlimit:10;}
	.st5{fill:none;stroke:#009DE0;stroke-width:7;stroke-linecap:round;stroke-linejoin:round;stroke-miterlimit:10;}
	.st6{fill:none;stroke:#FFFFFF;stroke-width:4;stroke-linecap:round;stroke-linejoin:round;stroke-miterlimit:10;}
	.st7{fill:none;stroke:#009DE0;stroke-width:10.1014;stroke-miterlimit:10;}
	.st8{fill:none;stroke:#009DE0;stroke-width:6.7343;stroke-linecap:round;stroke-linejoin:round;stroke-miterlimit:10;}
</style>
<g>
	<path class="st0" d="M98.2,67.3l0.2-32c0-2.4-1.9-4.3-4.3-4.3c-2.3,0-4.3,1.9-4.3,4.2l-0.1,20.7c0,4.4-4,9.2-5.8,8.3
		c-1.7-0.8-1.6-4.6-1.6-8.2l0.1-20.9c0-2.4-1.9-4.3-4.2-4.3c-2.4,0-4.3,1.9-4.3,4.2L73.8,56c0,3.5,0.1,7.3-1.7,8.2
		c-1.7,0.8-5.7-4-5.7-8.4l0.1-20.7c0-2.4-1.9-4.3-4.2-4.3c-2.3,0-4.3,1.9-4.3,4.2l-0.2,32C57.8,77.8,71,84.7,72.5,93.8
		c1.5,9.1-4.5,25.4-6.5,41c-1.9,15.5,2.1,34.1,11.4,34.2c9.3,0,13.6-18.5,11.8-34c-1.8-15.5-7.7-31.9-6-41
		C84.9,84.8,98.1,78,98.2,67.3"/>
	<path class="st0" d="M141.7,135.2c-1-8.9-3.4-18.1-4.9-26c-0.1-1.4-0.2-2.9-0.2-4.1c-0.4-11.3,0.6-58.9,0.3-63
		c-0.2-4.1-0.2-10-3.3-10.3c-3.1-0.3-16.2,8.5-18.8,22.9c-2.6,14.5-3.3,37.4-0.8,42c2.5,4.6,9.3,8,9.9,10.6c0,0.3,0,0.7,0,1.3
		c-1.6,8.1-4.2,17.4-5.3,26.5c-2,15.5,2.1,34.1,11.4,34.2C139.3,169.2,143.5,150.7,141.7,135.2"/>
</g>
</svg>
